<svg xmlns="http://www.w3.org/2000/svg" viewBox="-24 -24 848 918" role="img" aria-label="Ohio state outline filled with the Progress Pride flag design">
  <defs>
    <clipPath id="hpOhioClip"><path d="M575.5,672.4L569.9,680.9L571.8,701.0L566.2,705.8L559.1,705.6L561.1,713.3L568.3,721.2L565.1,733.5L569.1,743.0L565.2,743.2L556.6,738.1L551.3,751.0L543.4,755.5L537.9,750.8L543.4,742.1L536.9,727.9L528.3,726.6L524.1,718.1L517.8,718.7L514.9,726.3L507.5,731.3L497.9,749.7L497.6,763.8L483.3,776.7L489.5,789.7L491.5,821.4L486.3,824.3L475.8,822.7L470.3,827.4L467.9,847.5L463.1,860.2L449.2,861.4L422.2,870.2L415.1,867.2L411.0,853.6L402.3,847.4L394.3,835.9L388.6,832.2L375.7,831.3L367.5,824.5L361.3,800.3L362.5,788.4L359.1,784.3L342.4,791.6L332.8,791.7L328.6,799.0L317.6,804.9L312.0,816.2L300.9,818.2L292.8,815.5L283.8,823.1L272.2,809.2L251.5,803.9L241.6,797.2L221.9,803.0L217.7,814.3L212.1,815.0L195.4,808.9L192.1,798.1L182.9,793.6L180.0,785.4L176.1,782.8L159.6,776.7L139.2,780.8L112.9,772.2L109.5,766.2L108.9,750.9L98.9,735.7L95.9,723.3L88.2,715.9L73.4,712.0L71.5,700.0L67.8,695.6L64.0,695.9L57.7,702.1L50.1,700.7L39.5,707.1L25.2,700.5L18.9,691.6L14.1,689.0L6.0,696.8L0.0,699.2L3.3,359.3L2.6,68.5L254.1,59.6L255.6,65.9L262.4,69.7L272.1,70.5L277.7,67.2L295.4,81.1L322.5,90.3L333.3,102.7L350.7,112.8L361.7,109.0L365.2,104.5L364.6,97.7L369.4,94.9L378.4,106.4L391.0,106.1L391.7,115.8L396.6,118.1L409.8,133.7L428.9,144.4L435.0,145.1L457.2,134.1L477.1,132.2L490.1,122.6L522.3,112.5L547.3,120.3L562.8,117.1L573.1,119.0L598.9,101.5L628.2,74.1L657.1,52.9L664.2,52.6L708.5,30.1L729.0,26.4L747.5,16.5L762.4,14.1L799.9,0.0L799.9,325.9L789.2,331.9L785.1,329.2L779.8,330.5L772.2,339.6L785.7,365.7L782.6,383.4L778.6,386.4L783.1,390.2L784.9,404.1L781.3,416.9L775.2,421.8L772.2,432.8L765.4,443.8L764.6,456.8L759.1,463.0L758.8,488.6L754.3,493.6L755.8,502.4L746.6,501.6L749.4,513.8L742.8,519.4L742.8,530.5L734.8,538.3L741.8,553.1L735.8,556.5L732.7,573.8L724.3,574.6L716.0,581.2L697.4,599.3L685.8,616.3L675.9,620.1L670.1,630.6L660.1,631.0L645.8,640.7L640.6,641.7L637.2,639.3L633.7,628.8L625.7,625.3L606.8,642.4L604.4,659.7L584.3,658.3L581.0,662.3L581.7,669.8L575.5,672.4Z" /></clipPath>
    <linearGradient id="hpOhioSheenGrad" x1="0" y1="0" x2="1" y2="0">
      <stop offset="0" stop-color="#ffffff" stop-opacity="0" />
      <stop offset="0.5" stop-color="#ffffff" stop-opacity="0.16" />
      <stop offset="1" stop-color="#ffffff" stop-opacity="0" />
    </linearGradient>
  </defs>
  <g class="hp-ohio-inner">
    <g clip-path="url(#hpOhioClip)">
      <rect x="0" y="0" width="800" height="146" fill="#E40303" />
      <rect x="0" y="145" width="800" height="146" fill="#FFBC00" />
      <rect x="0" y="290" width="800" height="146" fill="#FFED00" />
      <rect x="0" y="435" width="800" height="146" fill="#008026" />
      <rect x="0" y="580" width="800" height="146" fill="#004DFF" />
      <rect x="0" y="725" width="800" height="146" fill="#750787" />
      <polygon points="-40,-125 520,435 -40,995" fill="#000000" />
      <polygon points="-40,-40 435,435 -40,910" fill="#613915" />
      <polygon points="-40,45 350,435 -40,825" fill="#70D6EC" />
      <polygon points="-40,130 265,435 -40,740" fill="#ffafc8" />
      <polygon points="-40,215 180,435 -40,655" fill="#ffffff" />
      <g class="hp-ohio-sheen" transform="rotate(14)">
        <rect x="-460" y="-160" width="320" height="1290" fill="url(#hpOhioSheenGrad)" />
      </g>
    </g>
    <path d="M575.5,672.4L569.9,680.9L571.8,701.0L566.2,705.8L559.1,705.6L561.1,713.3L568.3,721.2L565.1,733.5L569.1,743.0L565.2,743.2L556.6,738.1L551.3,751.0L543.4,755.5L537.9,750.8L543.4,742.1L536.9,727.9L528.3,726.6L524.1,718.1L517.8,718.7L514.9,726.3L507.5,731.3L497.9,749.7L497.6,763.8L483.3,776.7L489.5,789.7L491.5,821.4L486.3,824.3L475.8,822.7L470.3,827.4L467.9,847.5L463.1,860.2L449.2,861.4L422.2,870.2L415.1,867.2L411.0,853.6L402.3,847.4L394.3,835.9L388.6,832.2L375.7,831.3L367.5,824.5L361.3,800.3L362.5,788.4L359.1,784.3L342.4,791.6L332.8,791.7L328.6,799.0L317.6,804.9L312.0,816.2L300.9,818.2L292.8,815.5L283.8,823.1L272.2,809.2L251.5,803.9L241.6,797.2L221.9,803.0L217.7,814.3L212.1,815.0L195.4,808.9L192.1,798.1L182.9,793.6L180.0,785.4L176.1,782.8L159.6,776.7L139.2,780.8L112.9,772.2L109.5,766.2L108.9,750.9L98.9,735.7L95.9,723.3L88.2,715.9L73.4,712.0L71.5,700.0L67.8,695.6L64.0,695.9L57.7,702.1L50.1,700.7L39.5,707.1L25.2,700.5L18.9,691.6L14.1,689.0L6.0,696.8L0.0,699.2L3.3,359.3L2.6,68.5L254.1,59.6L255.6,65.9L262.4,69.7L272.1,70.5L277.7,67.2L295.4,81.1L322.5,90.3L333.3,102.7L350.7,112.8L361.7,109.0L365.2,104.5L364.6,97.7L369.4,94.9L378.4,106.4L391.0,106.1L391.7,115.8L396.6,118.1L409.8,133.7L428.9,144.4L435.0,145.1L457.2,134.1L477.1,132.2L490.1,122.6L522.3,112.5L547.3,120.3L562.8,117.1L573.1,119.0L598.9,101.5L628.2,74.1L657.1,52.9L664.2,52.6L708.5,30.1L729.0,26.4L747.5,16.5L762.4,14.1L799.9,0.0L799.9,325.9L789.2,331.9L785.1,329.2L779.8,330.5L772.2,339.6L785.7,365.7L782.6,383.4L778.6,386.4L783.1,390.2L784.9,404.1L781.3,416.9L775.2,421.8L772.2,432.8L765.4,443.8L764.6,456.8L759.1,463.0L758.8,488.6L754.3,493.6L755.8,502.4L746.6,501.6L749.4,513.8L742.8,519.4L742.8,530.5L734.8,538.3L741.8,553.1L735.8,556.5L732.7,573.8L724.3,574.6L716.0,581.2L697.4,599.3L685.8,616.3L675.9,620.1L670.1,630.6L660.1,631.0L645.8,640.7L640.6,641.7L637.2,639.3L633.7,628.8L625.7,625.3L606.8,642.4L604.4,659.7L584.3,658.3L581.0,662.3L581.7,669.8L575.5,672.4Z" fill="none" stroke="rgba(255,255,255,0.3)" stroke-width="4" stroke-linejoin="round" />
  </g>
</svg>
