<?xml version="1.0" encoding="UTF-8"?>
<svg xmlns="http://www.w3.org/2000/svg" viewBox="0 0 919 1000">
  <path fill="#000000" d="M0.0,807.9 L3.0,80.7 L292.0,70.3 L301.5,82.1 L319.1,79.2 L339.5,95.6 L374.7,109.5 L383.0,120.9 L403.0,132.7 L424.4,111.8 L449.3,124.8 L470.8,157.2 L488.7,167.8 L504.2,169.2 L525.4,157.7 L545.3,156.5 L563.9,144.9 L603.8,132.6 L616.0,139.2 L658.5,140.0 L755.1,62.4 L805.3,39.6 L919.1,0.0 L919.2,380.9 L905.4,387.4 L896.1,386.2 L887.3,396.7 L897.1,414.2 L900.8,434.9 L895.1,452.1 L900.4,475.0 L872.6,537.6 L871.9,568.1 L858.4,582.6 L853.8,615.3 L844.2,625.8 L852.8,640.1 L845.1,653.8 L800.1,696.2 L788.9,712.9 L742.1,741.6 L732.2,739.9 L728.2,728.1 L718.9,724.0 L696.8,745.7 L695.6,760.8 L671.4,761.5 L655.5,786.0 L657.6,807.6 L643.7,813.8 L650.6,842.2 L639.6,851.8 L624.4,856.2 L615.1,838.7 L601.2,828.8 L593.8,832.0 L573.9,862.8 L568.1,885.0 L557.9,891.1 L565.2,944.3 L544.1,948.3 L533.4,987.7 L482.9,1000.0 L475.8,995.2 L470.5,980.2 L447.8,958.2 L431.7,956.6 L420.7,945.4 L412.7,903.8 L386.4,911.0 L352.1,941.0 L337.8,938.8 L327.7,946.8 L308.6,929.8 L275.0,918.6 L255.0,924.9 L251.6,934.7 L243.8,938.4 L224.0,930.7 L221.5,920.4 L210.7,914.8 L206.9,905.1 L179.8,895.3 L164.2,899.6 L129.8,890.2 L125.7,869.7 L105.5,829.3 L89.6,824.1 L76.5,803.4 L45.4,816.7 L14.8,796.3 L0.0,807.9 Z"/>
</svg>
